<svg id="Layer_1" data-name="Layer 1" xmlns="http://www.w3.org/2000/svg" viewBox="0 0 115.82 115.97">
    <defs>
        <style>.cls-1{fill:#0052cc;}.cls-2{fill:#172b4d;}</style>
    </defs>
    <title>знак</title>
    <path class="cls-1" d="M234.35,181.87a63.6,63.6,0,0,0-32.18,32.84V181.87Z" transform="translate(-202.17 -181.86)"/>
    <path class="cls-2" d="M318,181.86v32.21a63.6,63.6,0,0,0-32.91-32.21Z" transform="translate(-202.17 -181.86)"/>
    <path class="cls-2" d="M233.32,297.71H202.17V265.93c0,.09.07.17.12.25a63.64,63.64,0,0,0,31,31.53Z"
          transform="translate(-202.17 -181.86)"/>
    <path class="cls-1"
          d="M316.91,228.73A57.95,57.95,0,0,0,260.06,182c-3,0-14.71.24-25.83,5.75a63,63,0,0,0-15.17,10.93l0,0a57.67,57.67,0,0,0-16.85,38v4.92a58.76,58.76,0,0,0,.64,7.15c0,.33.1.65.17,1l0,.2c.07.39.14.79.21,1.18a57.95,57.95,0,0,0,56.85,46.75H318V239.91A58.4,58.4,0,0,0,316.91,228.73ZM252.62,275a35.85,35.85,0,1,1,14.89,0A35.65,35.65,0,0,1,252.62,275Z"
          transform="translate(-202.17 -181.86)"/>
    <path class="cls-1"
          d="M273.32,226.51a18.76,18.76,0,1,0,0,26.53A18.77,18.77,0,0,0,273.32,226.51ZM272,237.33c-1.69,1.68-5.06,1.06-7.52-1.41s-3.09-5.83-1.41-7.52,5.06-1.06,7.53,1.4S273.73,235.64,272,237.33Z"
          transform="translate(-202.17 -181.86)"/>
</svg>