<svg id="Layer_1" data-name="Layer 1" xmlns="http://www.w3.org/2000/svg" viewBox="0 0 769.42 120.16">
    <defs>
        <style>.cls-1{fill:#0052cc;}.cls-2{fill:#172b4d;}</style>
    </defs>
    <title>web</title>
    <path class="cls-1" d="M565.35,189.87a63.6,63.6,0,0,0-32.18,32.84V189.87Z" transform="translate(-129.48 -189.31)"/>
    <path class="cls-2" d="M649,189.86v32.21a63.6,63.6,0,0,0-32.91-32.21Z" transform="translate(-129.48 -189.31)"/>
    <path class="cls-2" d="M564.32,305.71H533.17V273.93c0,.09.07.17.12.25a63.64,63.64,0,0,0,31,31.53Z"
          transform="translate(-129.48 -189.31)"/>
    <path class="cls-1"
          d="M647.91,236.73A57.95,57.95,0,0,0,591.06,190c-3,0-14.71.24-25.83,5.75a63,63,0,0,0-15.17,10.93l0,0a57.67,57.67,0,0,0-16.85,38v4.92a58.76,58.76,0,0,0,.64,7.15c0,.33.1.65.17,1l0,.2c.07.39.14.79.21,1.18a57.95,57.95,0,0,0,56.85,46.75H649V247.91A58.4,58.4,0,0,0,647.91,236.73ZM583.62,283a35.85,35.85,0,1,1,14.89,0A35.65,35.65,0,0,1,583.62,283Z"
          transform="translate(-129.48 -189.31)"/>
    <path class="cls-2"
          d="M143.54,269.47a56.53,56.53,0,0,0,13.71,11.8,26.73,26.73,0,0,0,13.48,3.91A15.49,15.49,0,0,0,181,281.81a10.62,10.62,0,0,0,4-8.52q0-5.7-3.48-8.79t-15.74-6.37q-16.8-4.53-23.75-11.8t-7-19.92q0-16.41,11-26.76t28.48-10.35a62.2,62.2,0,0,1,17.93,2.54,58,58,0,0,1,16.05,7.7L198.77,222a41,41,0,0,0-10.9-6.84,28.84,28.84,0,0,0-11.05-2.3,14.61,14.61,0,0,0-9.14,2.7,8.34,8.34,0,0,0-3.52,6.91,8.5,8.5,0,0,0,3.09,6.88q3.08,2.58,11.91,4.92l1.41.39q19.06,5.16,25.08,11.33a28,28,0,0,1,6.17,10.12,38.64,38.64,0,0,1,2.11,13.09q0,18.2-12,29.26T170.1,309.47a56.34,56.34,0,0,1-21.76-4.06,61.56,61.56,0,0,1-18.87-12.73Z"
          transform="translate(-129.48 -189.31)"/>
    <path class="cls-2" d="M233,306.42V192H264.2V236.5h41.56V192H337V306.42H305.76V259.86H264.2v46.56Z"
          transform="translate(-129.48 -189.31)"/>
    <path class="cls-2" d="M363.69,306.42V192h31.48V306.42Z" transform="translate(-129.48 -189.31)"/>
    <path class="cls-2"
          d="M451.15,306.42H421.93V192h32.58q19.14,0,26.88,1.88a31.63,31.63,0,0,1,13.13,6.41,33.76,33.76,0,0,1,9.65,13.09,44.41,44.41,0,0,1,3.32,17.46,46,46,0,0,1-3.28,18,31.36,31.36,0,0,1-9.69,12.77A30.44,30.44,0,0,1,483.1,267q-6.56,1.64-21,1.64H451.15Zm0-62.89h5.94q11.25,0,15.7-3.09t4.45-10.51q0-7.19-4.37-10.23t-15.47-3h-6.25Z"
          transform="translate(-129.48 -189.31)"/>
    <path class="cls-1"
          d="M674.24,306.42V192H705.1v52l36.17-52H777.6l-42.27,55.78,45.94,58.59H742.37L705.1,255.09v51.33Z"
          transform="translate(-129.48 -189.31)"/>
    <path class="cls-1"
          d="M882.08,209.17A57.47,57.47,0,0,0,784,247.93v3.81a57.48,57.48,0,1,0,98.09-42.57Zm-17.2,64.09a33.14,33.14,0,1,1,0-46.89A33.21,33.21,0,0,1,864.88,273.26Z"
          transform="translate(-129.48 -189.31)"/>
    <path class="cls-1"
          d="M604.32,234.51a18.76,18.76,0,1,0,0,26.53A18.77,18.77,0,0,0,604.32,234.51ZM603,245.33c-1.69,1.68-5.06,1.06-7.52-1.41s-3.09-5.83-1.41-7.52,5.06-1.06,7.53,1.4S604.73,243.64,603,245.33Z"
          transform="translate(-129.48 -189.31)"/>
</svg>