<svg width="16" height="16" viewBox="0 0 16 16" fill="none" xmlns="http://www.w3.org/2000/svg">
<path fill-rule="evenodd" clip-rule="evenodd" d="M12.8875 4.78687C12.9559 4.78687 13.0243 4.78686 13.0927 4.85497C13.0927 4.85497 13.0927 4.85497 15.8974 7.64737C16.0342 7.78358 16.0342 8.05601 15.8974 8.19223C15.8974 8.19223 15.8974 8.19222 13.0927 10.9846C13.0243 11.0527 12.9559 11.1208 12.8875 11.0527C12.8191 11.0527 12.8191 10.9846 12.8191 10.8484V4.92308C12.8191 4.85497 12.8191 4.78687 12.8875 4.78687Z" fill="#ED1C24"/>
<path fill-rule="evenodd" clip-rule="evenodd" d="M8.03115 0.223633H8.23638L8.4416 0.291744C8.4416 0.291744 8.4416 0.291742 11.3831 3.15224C11.5199 3.28846 11.4515 3.42467 11.2463 3.42467C11.2463 3.42467 11.2463 3.42467 10.015 3.42467C9.80975 3.42467 9.67293 3.56089 9.67293 3.76521C9.67293 3.76521 9.67293 3.76521 9.67293 5.87653C9.67293 6.08085 9.53612 6.21707 9.26249 6.21707C9.26249 6.21707 9.26249 6.21707 7.14185 6.21707C6.93663 6.21707 6.73141 6.08085 6.73141 5.87653C6.73141 5.87653 6.73141 5.87653 6.73141 3.76521C6.73141 3.56089 6.5946 3.42467 6.32097 3.42467H5.02123C4.816 3.42467 4.7476 3.28846 4.88441 3.15224C4.88441 3.15224 4.88441 3.15225 7.82593 0.291744L8.03115 0.223633Z" fill="#ED1C24"/>
<path fill-rule="evenodd" clip-rule="evenodd" d="M3.4473 4.71851C3.51571 4.71851 3.51571 4.78661 3.51571 4.92282V10.9163C3.51571 11.0525 3.51571 11.0525 3.4473 11.1206C3.3789 11.1206 3.31049 11.1206 3.24208 11.0525C3.24208 11.0525 3.24208 11.0525 0.368969 8.19197C0.232154 8.05576 0.232154 7.85143 0.368969 7.64711C0.368969 7.64711 0.368967 7.64711 3.24208 4.78661C3.31049 4.7185 3.3789 4.71851 3.4473 4.71851Z" fill="#ED1C24"/>
<path fill-rule="evenodd" clip-rule="evenodd" d="M7.07335 9.48608C7.07335 9.48608 7.07335 9.48608 9.19398 9.48608C9.46761 9.48608 9.60443 9.6223 9.60443 9.82662C9.60443 9.82662 9.60443 9.82662 9.60443 12.0742C9.60443 12.3466 9.74125 12.4828 9.94647 12.4828H11.041C11.2462 12.4828 11.3146 12.619 11.1778 12.7552C11.1778 12.7552 11.1778 12.7552 8.3731 15.6157C8.30469 15.6838 8.16787 15.7519 8.09946 15.7519C7.96265 15.7519 7.89424 15.6838 7.82583 15.6157C7.82583 15.6157 7.82583 15.6157 5.02113 12.7552C4.88431 12.619 4.95273 12.4828 5.15795 12.4828C5.15795 12.4828 5.15794 12.4828 6.38928 12.4828C6.5945 12.4828 6.79972 12.3466 6.79972 12.0742C6.79972 12.0742 6.79972 12.0742 6.79972 9.82662C6.73131 9.6223 6.86813 9.48608 7.07335 9.48608Z" fill="#ED1C24"/>
</svg>
