<svg width="76" height="76" viewBox="0 0 76 76" fill="none" xmlns="http://www.w3.org/2000/svg">
<path d="M38 76C58.9868 76 76 58.9868 76 38C76 17.0132 58.9868 0 38 0C17.0132 0 0 17.0132 0 38C0 58.9868 17.0132 76 38 76Z" fill="#FDD835"/>
<path d="M38 76C58.9868 76 76 58.9868 76 38C76 17.0132 58.9868 0 38 0C17.0132 0 0 17.0132 0 38C0 58.9868 17.0132 76 38 76Z" fill="url(#paint0_radial_31712_4856)"/>
<path d="M22.1667 43.0942C25.7785 43.0942 28.7065 40.1662 28.7065 36.5544C28.7065 32.9425 25.7785 30.0145 22.1667 30.0145C18.5548 30.0145 15.6268 32.9425 15.6268 36.5544C15.6268 40.1662 18.5548 43.0942 22.1667 43.0942Z" fill="#212121"/>
<path d="M53.8333 43.0942C57.4452 43.0942 60.3732 40.1662 60.3732 36.5544C60.3732 32.9425 57.4452 30.0145 53.8333 30.0145C50.2215 30.0145 47.2935 32.9425 47.2935 36.5544C47.2935 40.1662 50.2215 43.0942 53.8333 43.0942Z" fill="#212121"/>
<path d="M28.7065 48.5326C28.7065 48.5326 37.6558 54.7282 47.2935 48.5326" stroke="#212121" stroke-width="3" stroke-miterlimit="10" stroke-linecap="round"/>
<path d="M25.4022 33.4565C25.4022 34.3514 24.7138 35.0398 23.8188 35.0398C22.9239 35.0398 22.2355 34.3514 22.2355 33.4565C22.2355 32.5616 22.9239 31.8732 23.8188 31.8732C24.7138 31.8732 25.4022 32.5616 25.4022 33.4565Z" fill="#FEEB98"/>
<path d="M57.0688 33.4565C57.0688 34.3514 56.3804 35.0398 55.4855 35.0398C54.5906 35.0398 53.9022 34.3514 53.9022 33.4565C53.9022 32.5616 54.5906 31.8732 55.4855 31.8732C56.3116 31.8732 57.0688 32.5616 57.0688 33.4565Z" fill="#FEEB98"/>
<defs>
<radialGradient id="paint0_radial_31712_4856" cx="0" cy="0" r="1" gradientUnits="userSpaceOnUse" gradientTransform="translate(38.0136 38.0136) scale(38.0136)">
<stop stop-color="#FDD835" stop-opacity="0"/>
<stop offset="0.8608" stop-color="#FDD835" stop-opacity="0.8608"/>
<stop offset="1" stop-color="#FDD835"/>
</radialGradient>
</defs>
</svg>
