<svg width="76" height="76" viewBox="0 0 76 76" fill="none" xmlns="http://www.w3.org/2000/svg">
<path d="M38 76C58.9868 76 76 58.9868 76 38C76 17.0132 58.9868 0 38 0C17.0132 0 0 17.0132 0 38C0 58.9868 17.0132 76 38 76Z" fill="#FDD835"/>
<path d="M38 76C58.9868 76 76 58.9868 76 38C76 17.0132 58.9868 0 38 0C17.0132 0 0 17.0132 0 38C0 58.9868 17.0132 76 38 76Z" fill="url(#paint0_radial_31776_5561)"/>
<path d="M28.6377 52.0435C28.6377 52.0435 37.4493 38.0688 47.2935 52.0435" stroke="#212121" stroke-width="3" stroke-miterlimit="10" stroke-linecap="round" stroke-linejoin="round"/>
<path d="M22.0978 43.0944C25.7097 43.0944 28.6377 40.1664 28.6377 36.5545C28.6377 32.9426 25.7097 30.0146 22.0978 30.0146C18.486 30.0146 15.558 32.9426 15.558 36.5545C15.558 40.1664 18.486 43.0944 22.0978 43.0944Z" fill="#212121"/>
<path d="M53.7645 43.0944C57.3764 43.0944 60.3044 40.1664 60.3044 36.5545C60.3044 32.9426 57.3764 30.0146 53.7645 30.0146C50.1526 30.0146 47.2246 32.9426 47.2246 36.5545C47.2246 40.1664 50.1526 43.0944 53.7645 43.0944Z" fill="#212121"/>
<path d="M25.3333 33.4564C25.3333 34.3513 24.6449 35.0397 23.75 35.0397C22.8551 35.0397 22.1667 34.3513 22.1667 33.4564C22.1667 32.5615 22.8551 31.873 23.75 31.873C24.6449 31.873 25.3333 32.5615 25.3333 33.4564Z" fill="#FEEB98"/>
<path d="M57 33.4564C57 34.3513 56.3116 35.0397 55.4167 35.0397C54.5217 35.0397 53.8333 34.3513 53.8333 33.4564C53.8333 32.5615 54.5217 31.873 55.4167 31.873C56.3116 31.873 57 32.5615 57 33.4564Z" fill="#FEEB98"/>
<path d="M20.8587 23.6812C20.8587 23.6812 19.413 29.1884 13.0109 30.634" stroke="#212121" stroke-width="3" stroke-miterlimit="10" stroke-linecap="round" stroke-linejoin="round"/>
<path d="M55.1413 23.6812C55.1413 23.6812 56.587 29.1884 62.9891 30.634" stroke="#212121" stroke-width="3" stroke-miterlimit="10" stroke-linecap="round" stroke-linejoin="round"/>
<path d="M59.6159 39.5833C59.6159 39.5833 52.4565 46.8115 53.8333 52.8006C55.2101 58.7898 59.6159 58.6521 59.6159 58.6521C59.6159 58.6521 64.0906 58.7898 65.3985 52.8006C66.7754 46.8804 59.6159 39.5833 59.6159 39.5833Z" fill="#00B8D4"/>
<path d="M59.6159 40.4783C59.6159 40.4783 55.0725 45.0906 55.8986 48.9457C56.7246 52.8007 59.6159 52.6631 59.6159 52.6631C59.6159 52.6631 62.4384 52.7319 63.3333 48.9457C64.2283 45.1594 59.6159 40.4783 59.6159 40.4783Z" fill="#00B8D4"/>
<defs>
<radialGradient id="paint0_radial_31776_5561" cx="0" cy="0" r="1" gradientUnits="userSpaceOnUse" gradientTransform="translate(38.0136 38.0136) scale(38.0136)">
<stop stop-color="#FDD835" stop-opacity="0"/>
<stop offset="0.8608" stop-color="#FDD835" stop-opacity="0.8608"/>
<stop offset="1" stop-color="#FDD835"/>
</radialGradient>
</defs>
</svg>
