<svg width="167" height="126" viewBox="0 0 167 126" fill="none" xmlns="http://www.w3.org/2000/svg">
<path d="M62.3252 124.425C96.7465 124.425 124.65 96.5715 124.65 62.2125C124.65 27.8535 96.7465 0 62.3252 0C27.9039 0 0 27.8535 0 62.2125C0 96.5715 27.9039 124.425 62.3252 124.425Z" fill="#FDD835"/>
<path d="M62.3252 124.425C96.7465 124.425 124.65 96.5715 124.65 62.2125C124.65 27.8535 96.7465 0 62.3252 0C27.9039 0 0 27.8535 0 62.2125C0 96.5715 27.9039 124.425 62.3252 124.425Z" fill="url(#paint0_radial_31886_9927)"/>
<path d="M38.4849 71.2501C43.2952 71.2501 47.1946 67.3576 47.1946 62.5561C47.1946 57.7545 43.2952 53.8621 38.4849 53.8621C33.6746 53.8621 29.7751 57.7545 29.7751 62.5561C29.7751 67.3576 33.6746 71.2501 38.4849 71.2501Z" fill="black"/>
<g clip-path="url(#clip0_31886_9927)">
<path d="M44.0037 61.9467C44.0037 63.1336 43.0911 64.0467 41.9048 64.0467C40.7184 64.0467 39.7146 63.1336 39.7146 61.9467C39.7146 60.7597 40.6272 59.8467 41.8135 59.8467C42.9998 59.8467 44.0037 60.7597 44.0037 61.9467Z" fill="#FEEB98"/>
</g>
<path d="M89.7097 71.388C94.52 71.388 98.4195 67.4956 98.4195 62.694C98.4195 57.8924 94.52 54 89.7097 54C84.8995 54 81 57.8924 81 62.694C81 67.4956 84.8995 71.388 89.7097 71.388Z" fill="black"/>
<path d="M94.7583 60.6679C94.7583 61.8548 93.8457 62.7679 92.6594 62.7679C91.4731 62.7679 90.4692 61.8548 90.4692 60.6679C90.4692 59.4809 91.3818 58.5679 92.5681 58.5679C93.7545 58.5679 94.7583 59.4809 94.7583 60.6679Z" fill="#FEEB98"/>
<path d="M44.1335 58.398C35.4553 58.398 28.1341 55.0905 24.9468 53.3895C24.0317 52.8855 23.7161 51.72 24.2841 50.838C24.789 50.0505 25.7989 49.767 26.6193 50.208C29.9644 51.972 38.7373 55.878 48.2359 54.5235C49.1826 54.3975 50.0347 54.996 50.224 55.941C50.4449 56.949 49.7507 57.9255 48.7408 58.083C47.1945 58.3035 45.6482 58.398 44.1335 58.398Z" fill="black"/>
<path d="M75.9126 98.7222C75.2231 99.3799 74.152 99.4082 73.4796 98.7809C68.4352 94.1567 62.5983 91.8754 56.0485 92.0186C52.6744 92.1011 49.8736 92.822 48.2761 93.3495C47.4057 93.6463 46.4644 93.2191 46.085 92.4291C45.6152 91.4587 46.1194 90.3103 47.1264 89.9784C48.9664 89.3739 52.0404 88.5828 55.8046 88.4871C61.0916 88.3634 68.7307 89.6133 75.8785 96.17C76.6126 96.8105 76.6462 98.0096 75.9126 98.7222Z" fill="black"/>
<path d="M102.308 34.3035C87.2554 34.3035 75.0428 46.5255 75.0428 61.5195C75.0428 76.545 87.287 88.7355 102.308 88.7355C117.361 88.7355 129.573 76.5135 129.573 61.5195C129.605 46.5255 117.361 34.3035 102.308 34.3035ZM102.308 85.176C89.2435 85.176 78.6088 74.5605 78.6088 61.5195C78.6088 48.4785 89.2435 37.863 102.308 37.863C115.373 37.863 126.008 48.4785 126.008 61.5195C126.008 74.5605 115.373 85.176 102.308 85.176Z" fill="black"/>
<path d="M164.886 113.652L143.742 92.5469C142.386 91.1924 140.555 90.4364 138.63 90.4364C137.21 90.4364 135.885 90.8459 134.717 91.5704L129.857 86.7194C135.916 80.0729 139.608 71.2214 139.608 61.5509C139.608 40.8869 122.757 24.0659 102.056 24.0659C81.3542 24.0659 64.5027 40.8869 64.5027 61.5509C64.5027 82.2149 81.3542 99.0359 102.056 99.0359C111.933 99.0359 120.927 95.1929 127.648 88.9559L132.508 93.8069C130.741 96.6104 131.088 100.327 133.518 102.753L154.661 123.858C156.018 125.212 157.848 125.968 159.773 125.968C161.698 125.968 163.529 125.212 164.886 123.858C167.694 121.054 167.694 116.487 164.886 113.652ZM102.056 95.4764C83.3107 95.4764 68.1002 80.2619 68.1002 61.5824C68.1002 42.9029 83.3107 27.6569 102.056 27.6569C120.8 27.6569 136.011 42.8714 136.011 61.5509C136.011 80.2304 120.769 95.4764 102.056 95.4764ZM162.677 121.653C161.888 122.44 160.878 122.85 159.773 122.85C158.669 122.85 157.659 122.409 156.87 121.653L135.727 100.548C134.118 98.9414 134.118 96.3584 135.727 94.7519C136.516 93.9644 137.526 93.5549 138.63 93.5549C139.735 93.5549 140.745 93.9959 141.533 94.7519L162.677 115.857C164.255 117.463 164.255 120.078 162.677 121.653Z" fill="black"/>
<defs>
<radialGradient id="paint0_radial_31886_9927" cx="0" cy="0" r="1" gradientUnits="userSpaceOnUse" gradientTransform="translate(62.325 62.2119) scale(62.3249 62.2122)">
<stop stop-color="#FDD835" stop-opacity="0"/>
<stop offset="0.8608" stop-color="#FDD835" stop-opacity="0.8608"/>
<stop offset="1" stop-color="#FDD835"/>
</radialGradient>
<clipPath id="clip0_31886_9927">
<rect width="4.28907" height="4.2913" fill="white" transform="translate(39.7146 59.8467)"/>
</clipPath>
</defs>
</svg>
