<svg width="73" height="16" viewBox="0 0 73 16" fill="none" xmlns="http://www.w3.org/2000/svg">
<path d="M32.4703 8.65233C32.6034 8.89463 32.76 9.12758 32.9386 9.34889C33.701 10.3071 34.4637 11.2652 35.227 12.223C35.2826 12.2929 35.3405 12.362 35.3878 12.4357C35.5283 12.6545 35.4516 12.7693 35.144 12.7871C34.9572 12.7979 34.7685 12.7932 34.5808 12.7897C33.7477 12.7741 33.9124 12.9165 33.3782 12.2477C32.6456 11.3304 31.9197 10.4093 31.1871 9.49216C31.0346 9.29447 30.8081 9.14356 30.5422 9.06249C30.2764 8.98141 29.9858 8.97464 29.7149 9.04319C29.6793 9.0479 29.6467 9.06221 29.6221 9.08389C29.5974 9.10558 29.5822 9.13342 29.5787 9.16305C29.5683 9.25805 29.5674 9.35399 29.5673 9.44957C29.5666 10.3586 29.5666 11.2675 29.5673 12.1765C29.5673 12.2602 29.5714 12.3441 29.566 12.4278C29.5469 12.7267 29.4808 12.7828 29.1286 12.7897C28.8976 12.7942 28.6665 12.7942 28.4353 12.7897C28.0754 12.7822 28.0248 12.7362 28.0152 12.4253C28.0127 12.3417 28.0152 12.258 28.0152 12.174C28.0144 10.0691 28.0133 7.96416 28.012 5.85924C28.0211 5.64424 28.0015 5.42906 27.9536 5.21761C27.9397 5.12832 27.8891 5.04571 27.8103 4.98366C27.7316 4.9216 27.6294 4.88387 27.521 4.87679C27.3784 4.85884 27.2372 4.83335 27.0947 4.81511C26.9151 4.79213 26.8038 4.71665 26.7936 4.55925C26.7836 4.40342 26.8921 4.32076 27.0526 4.26482C27.1608 4.23093 27.2758 4.21455 27.3914 4.21656C28.4159 4.1966 29.439 4.13599 30.4649 4.15193C31.2339 4.16371 31.9921 4.22489 32.7181 4.44801C33.5941 4.71737 34.1955 5.20727 34.3392 5.99015C34.5169 6.95823 34.1571 7.76137 33.145 8.32106C32.9302 8.43883 32.7019 8.53894 32.4703 8.65233ZM29.567 6.59738H29.5692C29.5692 7.10006 29.5637 7.60274 29.5715 8.10491C29.5756 8.37535 29.5859 8.38153 29.9204 8.38749C30.2668 8.40133 30.6139 8.39894 30.96 8.38031C31.8611 8.31158 32.4691 7.89917 32.6339 7.19794C32.6886 6.95116 32.709 6.7 32.6946 6.44938C32.6854 6.09988 32.5438 5.76161 32.2896 5.48243C32.0355 5.20325 31.6818 4.99729 31.2786 4.89367C30.8416 4.77374 30.3939 4.79313 29.9477 4.80807C29.6095 4.81934 29.5736 4.84951 29.5695 5.12569C29.5618 5.61616 29.567 6.10677 29.567 6.59738Z" fill="black"/>
<path d="M66.8748 9.30559C66.6788 9.5384 66.5106 9.73028 66.3522 9.92783C65.6823 10.765 64.9948 11.5933 64.3585 12.4478C64.1235 12.7631 63.8244 12.8131 63.4494 12.7858C63.1736 12.7659 63.0851 12.6389 63.2331 12.447C63.5204 12.0743 63.8247 11.7104 64.1311 11.3483C64.8016 10.5549 65.4901 9.77208 66.1432 8.96837C66.329 8.73972 66.3513 8.57341 66.1432 8.33456C65.2973 7.36576 64.4747 6.38288 63.6564 5.39749C63.5341 5.24209 63.3753 5.10869 63.1894 5.00527C63.0035 4.90185 62.7943 4.83053 62.5743 4.79557C62.461 4.77707 62.3502 4.74954 62.2433 4.71335C62.1661 4.69333 62.1008 4.65019 62.06 4.59238C62.0192 4.53457 62.0059 4.46624 62.0227 4.40076C62.0525 4.25714 62.1789 4.2101 62.3396 4.21003C62.99 4.20952 63.6399 4.21189 64.29 4.20852C64.4967 4.20751 64.5927 4.31904 64.692 4.44147C65.1505 5.00749 65.6114 5.57223 66.0745 6.13571C66.3997 6.53101 66.7288 6.92396 67.0618 7.31456C67.2976 7.59297 67.3038 7.59355 67.5532 7.30092C68.3113 6.41182 69.032 5.5014 69.7238 4.57691C69.9351 4.29455 70.1666 4.17427 70.5606 4.20349C70.9046 4.22884 71.2535 4.20967 71.6002 4.20873C71.783 4.2083 71.9558 4.22223 71.998 4.40844C72.0311 4.55501 71.9188 4.67414 71.654 4.71077C71.3963 4.7376 71.1491 4.81171 70.9305 4.92771C70.6561 5.08399 70.4107 5.27251 70.202 5.48733C69.4659 6.23998 68.7387 6.99888 68.08 7.80029C67.7678 8.17981 67.7678 8.18469 68.078 8.55179C69.0957 9.75707 70.1151 10.9614 71.1362 12.1647C71.2158 12.2498 71.2881 12.3394 71.3525 12.4329C71.4692 12.6235 71.3779 12.7728 71.1221 12.7835C70.7618 12.7984 70.4 12.7868 70.0389 12.7889C69.8321 12.79 69.7426 12.6668 69.6419 12.5474C68.8542 11.6173 68.0652 10.688 67.2749 9.75972C67.1586 9.62328 67.0372 9.48986 66.8748 9.30559Z" fill="black"/>
<path d="M55.336 8.93121C55.336 7.8663 55.336 6.80142 55.336 5.73656C55.336 5.61692 55.339 5.49692 55.3293 5.3775C55.3024 5.04782 55.1701 4.90513 54.793 4.80445C54.6425 4.76431 54.4846 4.74355 54.3333 4.70528C54.2543 4.69146 54.1843 4.65388 54.1368 4.59981C54.0892 4.54574 54.0676 4.47901 54.076 4.41251C54.0867 4.26221 54.2133 4.16189 54.4289 4.15808C54.7609 4.15226 55.0938 4.15808 55.4256 4.17108C56.9557 4.23149 58.4856 4.23149 60.0154 4.17108C60.2756 4.16059 60.5358 4.1542 60.7955 4.15671C61.1014 4.15937 61.1963 4.20605 61.2539 4.44518C61.3693 4.91376 61.4262 5.39091 61.4239 5.86912C61.4307 5.93587 61.4062 6.00223 61.3554 6.05438C61.3046 6.10654 61.2316 6.1405 61.1513 6.14918C61.0719 6.16194 60.9896 6.15013 60.92 6.11598C60.8504 6.08183 60.7984 6.02772 60.7738 5.96391C60.7173 5.85433 60.6765 5.73936 60.6276 5.62712C60.4269 5.16616 60.0465 4.91899 59.4431 4.86369C58.6922 4.79497 57.9427 4.82779 57.1921 4.81917C56.9319 4.81616 56.8898 4.85443 56.8583 5.05859C56.8473 5.15383 56.8436 5.24955 56.8471 5.34519C56.8463 6.0633 56.8463 6.78119 56.8471 7.49887C56.8471 7.55869 56.8442 7.61872 56.849 7.6784C56.8698 7.93692 56.8978 7.96665 57.2084 7.97182C57.6562 7.979 58.1043 7.97491 58.5523 7.97519C58.9859 7.97519 59.4196 7.97282 59.8532 7.97598C60.2708 7.97907 60.387 8.05117 60.393 8.29856C60.3996 8.57252 60.2636 8.67506 59.8648 8.67671C59.0408 8.68009 58.2169 8.67765 57.3937 8.67793C57.2925 8.67793 57.1914 8.6821 57.0901 8.68109C56.9471 8.67966 56.8827 8.7473 56.8619 8.85423C56.8542 8.88953 56.8499 8.92529 56.8492 8.96116C56.8528 9.79811 56.8097 10.6362 56.9186 11.4708C56.9684 11.8547 57.0584 11.93 57.5228 11.9978C58.0785 12.0789 58.6433 12.0857 59.2042 12.1061C59.8823 12.1308 60.5623 12.1176 61.2414 12.1205C61.3282 12.1209 61.4149 12.1157 61.5016 12.1213C61.7437 12.1367 61.888 12.2327 61.9035 12.3829C61.9038 12.4783 61.8638 12.5709 61.7905 12.6445C61.7171 12.7181 61.615 12.7682 61.5017 12.786C61.4152 12.792 61.3283 12.7934 61.2415 12.7903C59.4497 12.7903 57.6578 12.7903 55.8659 12.7903C55.7792 12.7903 55.6925 12.7903 55.6057 12.786C55.5693 12.787 55.533 12.7817 55.4992 12.7704C55.4653 12.7592 55.4347 12.7422 55.4093 12.7205C55.3838 12.6989 55.3641 12.6731 55.3514 12.6448C55.3387 12.6165 55.3333 12.5863 55.3355 12.5562C55.3297 12.4607 55.3311 12.3648 55.3311 12.2689C55.3311 11.1561 55.3311 10.0434 55.3311 8.93071L55.336 8.93121Z" fill="black"/>
<path d="M7.44612 12.7877C6.61845 12.782 6.74204 12.8739 6.47474 12.1989C6.17408 11.4386 5.87122 10.6789 5.56616 9.91972C5.42557 9.57015 5.3881 9.54781 4.95038 9.5463C4.22809 9.54379 3.50563 9.55176 2.78343 9.54235C2.5438 9.53927 2.42359 9.61151 2.34111 9.79958C1.96748 10.6529 1.5811 11.5024 1.19072 12.3505C0.999919 12.765 0.733398 12.8761 0.226376 12.7818C0.190093 12.7791 0.154967 12.7699 0.123484 12.7547C0.0920021 12.7395 0.0649337 12.7188 0.0441961 12.694C0.0234586 12.6692 0.00955911 12.641 0.00348215 12.6112C-0.00259481 12.5815 -0.00070066 12.551 0.00903047 12.5219C0.0310505 12.4403 0.0627449 12.3607 0.103653 12.2842C1.12972 10.0773 2.15661 7.87062 3.1843 5.66435C3.3315 5.36574 3.44878 5.05761 3.53495 4.74308C3.566 4.61871 3.61257 4.51681 3.74865 4.44909C3.94272 4.34522 4.1263 4.22847 4.29756 4.10001C4.51751 3.94576 4.66989 3.97679 4.81586 4.19007C4.86544 4.26304 4.90581 4.34004 4.93633 4.41986C5.93615 7.01425 7.0717 9.57 8.13206 12.1471C8.1888 12.2696 8.23251 12.396 8.26268 12.5249C8.29433 12.6954 8.21749 12.772 8.00925 12.7852C7.82252 12.797 7.63389 12.7877 7.44612 12.7877ZM3.94613 5.92078C3.49514 6.84169 3.10962 7.70169 2.76921 8.57549C2.69705 8.76062 2.73833 8.80313 2.99375 8.80665C3.54206 8.81426 4.09062 8.81326 4.63902 8.80859C5.03997 8.80514 5.10901 8.73491 4.99574 8.42304C4.8548 8.03475 4.69739 7.65035 4.53893 7.26688C4.36252 6.83896 4.21647 6.40177 3.94613 5.92078Z" fill="black"/>
<path d="M40.1633 9.54622C39.8022 9.54622 39.441 9.54385 39.0799 9.54673C38.7064 9.54974 38.6983 9.55283 38.5583 9.86435C38.2874 10.4689 38.0237 11.0758 37.754 11.6807C37.6341 11.9496 37.4967 12.2134 37.3864 12.485C37.2997 12.6987 37.1363 12.7789 36.8697 12.7878C36.2269 12.8094 36.1525 12.7278 36.3888 12.2198C37.4312 9.9796 38.4726 7.7391 39.513 5.49831C39.5765 5.39083 39.6211 5.27641 39.6456 5.1585C39.6904 4.65216 40.0899 4.36255 40.5446 4.09735C40.7806 3.95976 40.9201 3.97699 41.0665 4.19027C41.1163 4.2631 41.1567 4.34014 41.1867 4.42007C41.8621 6.22252 42.6538 7.99245 43.3902 9.77781C43.7165 10.5687 44.0518 11.3572 44.3828 12.1469C44.416 12.2259 44.4527 12.3041 44.4798 12.3844C44.5832 12.692 44.5076 12.782 44.1314 12.7893C43.8571 12.7946 43.5824 12.794 43.3081 12.7893C42.9794 12.7837 42.952 12.7705 42.8458 12.5071C42.6082 11.9183 42.3789 11.3273 42.146 10.7371C42.0295 10.442 41.9078 10.1483 41.7975 9.85135C41.7194 9.63994 41.5655 9.53703 41.29 9.544C40.9148 9.55348 40.539 9.54637 40.1633 9.54622ZM40.1993 5.91761C39.741 6.84764 39.3541 7.72007 39.0083 8.60442C38.9489 8.75637 39.0025 8.80377 39.2381 8.80693C39.7864 8.81411 40.3351 8.81361 40.8835 8.80894C41.3041 8.80542 41.3615 8.73993 41.2345 8.39466C41.0958 8.01816 40.9465 7.64424 40.7922 7.27183C40.6155 6.84412 40.4672 6.40736 40.1993 5.91761Z" fill="black"/>
<path d="M11.9037 12.9972C11.1968 13.0065 10.5661 12.8926 9.94097 12.7359C9.52693 12.632 9.26778 12.4314 9.19458 12.0709C9.12051 11.7061 9.02979 11.3437 8.95668 10.9788C8.91466 10.8372 8.9423 10.6876 9.03352 10.5628C9.1781 10.3874 9.43586 10.3797 9.56144 10.564C9.66673 10.7186 9.72319 10.8955 9.81062 11.0591C10.1142 11.6268 10.5548 12.0852 11.3016 12.2775C11.8545 12.4198 12.4092 12.4267 12.9488 12.2268C13.5992 11.986 13.917 11.4972 13.838 10.8455C13.7636 10.2321 13.3742 9.77383 12.7744 9.43236C12.2985 9.16142 11.8132 8.90161 11.3287 8.64122C10.917 8.41831 10.5425 8.15151 10.215 7.84771C9.01314 6.74304 9.24653 4.84472 11.2876 4.20596C12.1457 3.93746 13.012 3.96396 13.889 4.10126C14.1155 4.13717 14.34 4.18119 14.5655 4.22334C14.6521 4.23532 14.7322 4.26895 14.7951 4.31972C14.858 4.37048 14.9006 4.43595 14.9173 4.50735C15.0168 4.90475 15.1214 5.30266 15.1115 5.7122C15.1133 5.78363 15.0995 5.85475 15.071 5.92217C14.9684 6.12999 14.6913 6.17042 14.5164 5.99865C14.4398 5.91225 14.3765 5.81829 14.3279 5.71895C14.2343 5.55759 14.1638 5.38567 14.0554 5.23192C13.9508 5.08047 13.8055 4.95096 13.6308 4.85343C13.4561 4.75589 13.2567 4.69293 13.0479 4.66943C12.7071 4.6169 12.358 4.61336 12.0158 4.65894C11.4521 4.74397 11.0675 4.98209 10.9167 5.45605C10.7025 6.12805 10.9851 6.66247 11.6105 7.07388C12.0957 7.39293 12.6226 7.66869 13.1329 7.96139C13.4178 8.12476 13.7084 8.28138 13.9934 8.44468C15.032 9.03963 15.3638 9.89052 15.236 10.8852C15.0981 11.9623 14.1487 12.6714 12.8864 12.9186C12.5647 12.9816 12.234 13.0081 11.9037 12.9972Z" fill="black"/>
<path d="M47.624 8.78729C47.624 7.63922 47.624 6.49118 47.624 5.34316C47.624 5.23544 47.6184 5.12773 47.62 5.02001C47.6221 4.88716 47.5454 4.81894 47.3859 4.81894C46.679 4.81829 45.9684 4.77794 45.2697 4.89269C45.0702 4.92601 44.8823 4.99573 44.7195 5.09679C44.5568 5.19785 44.4233 5.3277 44.3288 5.47687C44.2361 5.6118 44.1595 5.75478 44.0605 5.88619C44.0072 5.95769 43.9229 6.00957 43.8249 6.03115C43.7268 6.05274 43.6225 6.04239 43.5334 6.00224C43.38 5.9346 43.3509 5.83499 43.4429 5.63098C43.6096 5.26173 43.7566 4.88733 43.884 4.50778C43.9774 4.23066 44.0141 4.2097 44.3716 4.20941C47.2458 4.20754 50.12 4.20754 52.9942 4.20941C53.387 4.20941 53.4691 4.27619 53.4304 4.58922C53.382 4.98059 53.3055 5.36966 53.2379 5.7593C53.2251 5.81815 53.2057 5.87585 53.1798 5.93165C53.1603 5.98348 53.1204 6.0284 53.0664 6.05922C53.0125 6.09004 52.9476 6.10497 52.8822 6.10163C52.8168 6.10929 52.7504 6.09738 52.6947 6.06803C52.639 6.03868 52.5979 5.99382 52.5786 5.94156C52.5306 5.81697 52.5006 5.68742 52.4659 5.55945C52.348 5.126 52.1158 4.9482 51.5967 4.88048C50.8934 4.78871 50.1853 4.81621 49.4787 4.81901C49.2204 4.82002 49.1987 4.8496 49.1838 5.07904C49.1769 5.1864 49.1806 5.29447 49.1806 5.40183C49.1806 7.66201 49.1806 9.92221 49.1806 12.1824C49.1858 12.29 49.1838 12.3977 49.1747 12.505C49.1473 12.7102 49.0647 12.7787 48.816 12.7864C48.5276 12.7955 48.238 12.7968 47.9497 12.7855C47.7224 12.7766 47.6504 12.7082 47.6276 12.5175C47.6177 12.4346 47.624 12.3503 47.624 12.2662C47.624 11.107 47.624 9.94737 47.624 8.78729Z" fill="black"/>
<path d="M20.1298 8.75088C20.1298 7.60305 20.1298 6.4552 20.1298 5.30733C20.1298 5.21168 20.1245 5.11602 20.1262 5.02008C20.1287 4.88702 20.0512 4.81901 19.8921 4.81901C19.1853 4.81851 18.4749 4.77751 17.7759 4.89291C17.5764 4.92609 17.3885 4.99578 17.2258 5.09685C17.0631 5.19793 16.9298 5.32784 16.8355 5.47709C16.7432 5.61224 16.6578 5.75062 16.5691 5.88749C16.4804 6.02436 16.3341 6.05409 16.1639 6.0319C15.9367 6.00239 15.8368 5.88289 15.9192 5.69906C16.1091 5.28627 16.2728 4.86555 16.4097 4.43863C16.4237 4.36649 16.4715 4.30185 16.5428 4.25874C16.6141 4.21563 16.703 4.19754 16.7903 4.2084C16.8622 4.21243 16.9346 4.2084 17.0071 4.2084C19.794 4.2084 22.5811 4.2084 25.3684 4.2084C25.9224 4.2084 26.003 4.28675 25.9247 4.73061C25.8706 5.03753 25.8227 5.34517 25.7668 5.65181C25.7484 5.74612 25.7217 5.83917 25.6867 5.93022C25.6686 5.98248 25.6294 6.02802 25.5757 6.05924C25.5219 6.09046 25.4569 6.10547 25.3913 6.10177C25.3261 6.10976 25.2596 6.0982 25.2037 6.06917C25.1479 6.04014 25.1064 5.99555 25.0867 5.94343C25.0355 5.80668 24.9949 5.66734 24.9653 5.52628C24.8817 5.14568 24.5952 4.94626 24.1484 4.88594C23.4172 4.7872 22.6801 4.81944 21.9445 4.81715C21.76 4.81657 21.6873 4.89556 21.6904 5.04084C21.693 5.16033 21.6868 5.2799 21.6868 5.39946C21.6868 7.65911 21.6868 9.91896 21.6868 12.179C21.6868 12.2746 21.6929 12.3707 21.684 12.4658C21.6605 12.7158 21.5842 12.7801 21.2844 12.7882C21.0248 12.7954 20.764 12.7958 20.5048 12.7874C20.2334 12.7787 20.1568 12.7111 20.133 12.4808C20.1243 12.3977 20.13 12.3135 20.13 12.2295C20.1298 11.0703 20.1297 9.91072 20.1298 8.75088Z" fill="black"/>
</svg>
