<svg width="168" height="19" viewBox="0 0 168 19" fill="none" xmlns="http://www.w3.org/2000/svg">
<path d="M5.11719 0.9375L9.5 13.3125L13.8594 0.9375H18.4766V18H14.9492V13.3359L15.3008 5.28516L10.6953 18H8.28125L3.6875 5.29688L4.03906 13.3359V18H0.523438V0.9375H5.11719ZM27.1602 18.2344C25.3008 18.2344 23.7852 17.6641 22.6133 16.5234C21.4492 15.3828 20.8672 13.8633 20.8672 11.9648V11.6367C20.8672 10.3633 21.1133 9.22656 21.6055 8.22656C22.0977 7.21875 22.793 6.44531 23.6914 5.90625C24.5977 5.35937 25.6289 5.08594 26.7852 5.08594C28.5195 5.08594 29.8828 5.63281 30.875 6.72656C31.875 7.82031 32.375 9.37109 32.375 11.3789V12.7617H24.3008C24.4102 13.5898 24.7383 14.2539 25.2852 14.7539C25.8398 15.2539 26.5391 15.5039 27.3828 15.5039C28.6875 15.5039 29.707 15.0312 30.4414 14.0859L32.1055 15.9492C31.5977 16.668 30.9102 17.2305 30.043 17.6367C29.1758 18.0352 28.2148 18.2344 27.1602 18.2344ZM26.7734 7.82812C26.1016 7.82812 25.5547 8.05469 25.1328 8.50781C24.7188 8.96094 24.4531 9.60938 24.3359 10.4531H29.0469V10.1836C29.0312 9.43359 28.8281 8.85547 28.4375 8.44922C28.0469 8.03516 27.4922 7.82812 26.7734 7.82812ZM40.1445 18.2344C38.2852 18.2344 36.7695 17.6641 35.5977 16.5234C34.4336 15.3828 33.8516 13.8633 33.8516 11.9648V11.6367C33.8516 10.3633 34.0977 9.22656 34.5898 8.22656C35.082 7.21875 35.7773 6.44531 36.6758 5.90625C37.582 5.35937 38.6133 5.08594 39.7695 5.08594C41.5039 5.08594 42.8672 5.63281 43.8594 6.72656C44.8594 7.82031 45.3594 9.37109 45.3594 11.3789V12.7617H37.2852C37.3945 13.5898 37.7227 14.2539 38.2695 14.7539C38.8242 15.2539 39.5234 15.5039 40.3672 15.5039C41.6719 15.5039 42.6914 15.0312 43.4258 14.0859L45.0898 15.9492C44.582 16.668 43.8945 17.2305 43.0273 17.6367C42.1602 18.0352 41.1992 18.2344 40.1445 18.2344ZM39.7578 7.82812C39.0859 7.82812 38.5391 8.05469 38.1172 8.50781C37.7031 8.96094 37.4375 9.60938 37.3203 10.4531H42.0312V10.1836C42.0156 9.43359 41.8125 8.85547 41.4219 8.44922C41.0312 8.03516 40.4766 7.82812 39.7578 7.82812ZM54.1602 14.4961C54.1602 14.082 53.9531 13.7578 53.5391 13.5234C53.1328 13.2812 52.4766 13.0664 51.5703 12.8789C48.5547 12.2461 47.0469 10.9648 47.0469 9.03516C47.0469 7.91016 47.5117 6.97266 48.4414 6.22266C49.3789 5.46484 50.6016 5.08594 52.1094 5.08594C53.7188 5.08594 55.0039 5.46484 55.9648 6.22266C56.9336 6.98047 57.418 7.96484 57.418 9.17578H54.0312C54.0312 8.69141 53.875 8.29297 53.5625 7.98047C53.25 7.66016 52.7617 7.5 52.0977 7.5C51.5273 7.5 51.0859 7.62891 50.7734 7.88672C50.4609 8.14453 50.3047 8.47266 50.3047 8.87109C50.3047 9.24609 50.4805 9.55078 50.832 9.78516C51.1914 10.0117 51.793 10.2109 52.6367 10.3828C53.4805 10.5469 54.1914 10.7344 54.7695 10.9453C56.5586 11.6016 57.4531 12.7383 57.4531 14.3555C57.4531 15.5117 56.957 16.4492 55.9648 17.168C54.9727 17.8789 53.6914 18.2344 52.1211 18.2344C51.0586 18.2344 50.1133 18.0469 49.2852 17.6719C48.4648 17.2891 47.8203 16.7695 47.3516 16.1133C46.8828 15.4492 46.6484 14.7344 46.6484 13.9688H49.8594C49.8906 14.5703 50.1133 15.0312 50.5273 15.3516C50.9414 15.6719 51.4961 15.832 52.1914 15.832C52.8398 15.832 53.3281 15.7109 53.6562 15.4688C53.9922 15.2188 54.1602 14.8945 54.1602 14.4961ZM63.6992 2.20312V5.32031H65.8672V7.80469H63.6992V14.1328C63.6992 14.6016 63.7891 14.9375 63.9688 15.1406C64.1484 15.3438 64.4922 15.4453 65 15.4453C65.375 15.4453 65.707 15.418 65.9961 15.3633V17.9297C65.332 18.1328 64.6484 18.2344 63.9453 18.2344C61.5703 18.2344 60.3594 17.0352 60.3125 14.6367V7.80469H58.4609V5.32031H60.3125V2.20312H63.6992ZM67.9766 18V0.9375H73.9531C76.0234 0.9375 77.5938 1.33594 78.6641 2.13281C79.7344 2.92187 80.2695 4.08203 80.2695 5.61328C80.2695 6.44922 80.0547 7.1875 79.625 7.82812C79.1953 8.46094 78.5977 8.92578 77.832 9.22266C78.707 9.44141 79.3945 9.88281 79.8945 10.5469C80.4023 11.2109 80.6562 12.0234 80.6562 12.9844C80.6562 14.625 80.1328 15.8672 79.0859 16.7109C78.0391 17.5547 76.5469 17.9844 74.6094 18H67.9766ZM71.4922 10.5703V15.1758H74.5039C75.332 15.1758 75.9766 14.9805 76.4375 14.5898C76.9062 14.1914 77.1406 13.6445 77.1406 12.9492C77.1406 11.3867 76.332 10.5938 74.7148 10.5703H71.4922ZM71.4922 8.08594H74.0938C75.8672 8.05469 76.7539 7.34766 76.7539 5.96484C76.7539 5.19141 76.5273 4.63672 76.0742 4.30078C75.6289 3.95703 74.9219 3.78516 73.9531 3.78516H71.4922V8.08594ZM94.6367 18H82.9414V15.6797L88.4609 9.79688C89.2188 8.96875 89.7773 8.24609 90.1367 7.62891C90.5039 7.01172 90.6875 6.42578 90.6875 5.87109C90.6875 5.11328 90.4961 4.51953 90.1133 4.08984C89.7305 3.65234 89.1836 3.43359 88.4727 3.43359C87.707 3.43359 87.1016 3.69922 86.6562 4.23047C86.2188 4.75391 86 5.44531 86 6.30469H82.6016C82.6016 5.26562 82.8477 4.31641 83.3398 3.45703C83.8398 2.59766 84.543 1.92578 85.4492 1.44141C86.3555 0.949219 87.3828 0.703125 88.5312 0.703125C90.2891 0.703125 91.6523 1.125 92.6211 1.96875C93.5977 2.8125 94.0859 4.00391 94.0859 5.54297C94.0859 6.38672 93.8672 7.24609 93.4297 8.12109C92.9922 8.99609 92.2422 10.0156 91.1797 11.1797L87.3008 15.2695H94.6367V18ZM97.0859 18V0.9375H103.062C105.133 0.9375 106.703 1.33594 107.773 2.13281C108.844 2.92187 109.379 4.08203 109.379 5.61328C109.379 6.44922 109.164 7.1875 108.734 7.82812C108.305 8.46094 107.707 8.92578 106.941 9.22266C107.816 9.44141 108.504 9.88281 109.004 10.5469C109.512 11.2109 109.766 12.0234 109.766 12.9844C109.766 14.625 109.242 15.8672 108.195 16.7109C107.148 17.5547 105.656 17.9844 103.719 18H97.0859ZM100.602 10.5703V15.1758H103.613C104.441 15.1758 105.086 14.9805 105.547 14.5898C106.016 14.1914 106.25 13.6445 106.25 12.9492C106.25 11.3867 105.441 10.5938 103.824 10.5703H100.602ZM100.602 8.08594H103.203C104.977 8.05469 105.863 7.34766 105.863 5.96484C105.863 5.19141 105.637 4.63672 105.184 4.30078C104.738 3.95703 104.031 3.78516 103.062 3.78516H100.602V8.08594Z" fill="#5081E9"/>
<path d="M131.785 12.3164C131.652 14.1523 130.973 15.5977 129.746 16.6523C128.527 17.707 126.918 18.2344 124.918 18.2344C122.73 18.2344 121.008 17.5 119.75 16.0312C118.5 14.5547 117.875 12.5312 117.875 9.96094V8.91797C117.875 7.27734 118.164 5.83203 118.742 4.58203C119.32 3.33203 120.145 2.375 121.215 1.71094C122.293 1.03906 123.543 0.703125 124.965 0.703125C126.934 0.703125 128.52 1.23047 129.723 2.28516C130.926 3.33984 131.621 4.82031 131.809 6.72656H128.293C128.207 5.625 127.898 4.82812 127.367 4.33594C126.844 3.83594 126.043 3.58594 124.965 3.58594C123.793 3.58594 122.914 4.00781 122.328 4.85156C121.75 5.6875 121.453 6.98828 121.438 8.75391V10.043C121.438 11.8867 121.715 13.2344 122.27 14.0859C122.832 14.9375 123.715 15.3633 124.918 15.3633C126.004 15.3633 126.812 15.1172 127.344 14.625C127.883 14.125 128.191 13.3555 128.27 12.3164H131.785ZM140.41 11.7539H137.609V18H134.094V0.9375H140.434C142.449 0.9375 144.004 1.38672 145.098 2.28516C146.191 3.18359 146.738 4.45312 146.738 6.09375C146.738 7.25781 146.484 8.23047 145.977 9.01172C145.477 9.78516 144.715 10.4023 143.691 10.8633L147.383 17.8359V18H143.609L140.41 11.7539ZM137.609 8.90625H140.445C141.328 8.90625 142.012 8.68359 142.496 8.23828C142.98 7.78516 143.223 7.16406 143.223 6.375C143.223 5.57031 142.992 4.9375 142.531 4.47656C142.078 4.01563 141.379 3.78516 140.434 3.78516H137.609V8.90625ZM154.016 0.9375L158.398 13.3125L162.758 0.9375H167.375V18H163.848V13.3359L164.199 5.28516L159.594 18H157.18L152.586 5.29688L152.938 13.3359V18H149.422V0.9375H154.016Z" fill="black"/>
</svg>
