<svg width="72" height="16" viewBox="0 0 72 16" fill="none" xmlns="http://www.w3.org/2000/svg">
<path d="M67 0H5V16H67V0Z" fill="black"/>
<path d="M36.6119 5.54025H34.2632V12.0245H32.5125V5.54025H30.1584V3.97539H36.6119V5.54025ZM40.2885 3.97539H38.5385V12.0245H40.2885V3.97539ZM59.5578 7.99993C59.564 8.56247 59.4635 9.12066 59.2622 9.64191C59.061 10.1632 58.7629 10.637 58.3855 11.0358C57.6172 11.8027 56.5983 12.2302 55.5389 12.2302C54.4795 12.2302 53.4606 11.8027 52.6923 11.0358C52.3114 10.6392 52.0104 10.166 51.8073 9.64437C51.6041 9.12279 51.503 8.56352 51.5098 7.99993C51.499 7.43768 51.5964 6.87893 51.7961 6.35724C51.9958 5.83555 52.2938 5.36168 52.672 4.9641C53.4402 4.19688 54.4592 3.76911 55.5186 3.76911C56.5781 3.76911 57.5971 4.19688 58.3652 4.9641C58.7483 5.35953 59.0514 5.83229 59.2563 6.35397C59.4613 6.87566 59.5638 7.43552 59.5578 7.99993ZM53.2605 7.99993C53.2474 8.68422 53.4873 9.34718 53.9296 9.84931C54.3365 10.296 54.8955 10.5545 55.4836 10.5678C56.0718 10.5811 56.6409 10.3483 57.0657 9.92044L57.1334 9.84931C57.5737 9.3463 57.8116 8.68344 57.797 7.99993C57.8132 7.31401 57.5752 6.64832 57.1334 6.14344C56.9319 5.92217 56.691 5.7448 56.4243 5.62147C56.1577 5.49814 55.8705 5.43126 55.5793 5.42465C55.2881 5.41805 54.9984 5.47184 54.727 5.58297C54.4555 5.6941 54.2075 5.86038 53.9972 6.07231C53.9742 6.09507 53.9512 6.11925 53.9296 6.14344C53.4856 6.64735 53.2457 7.3132 53.2605 7.99993ZM29.2938 7.99993C29.3 8.56247 29.1995 9.12066 28.9982 9.64191C28.797 10.1632 28.4989 10.637 28.1215 11.0358C27.3531 11.8027 26.334 12.2303 25.2746 12.2303C24.2151 12.2303 23.196 11.8027 22.4276 11.0358C22.0469 10.6391 21.746 10.1659 21.543 9.64429C21.3399 9.12271 21.2389 8.56347 21.2458 7.99993C21.2377 7.43623 21.3382 6.87663 21.5413 6.35487C21.7444 5.83312 22.0459 5.36002 22.4276 4.9641C23.1959 4.19684 24.215 3.76904 25.2746 3.76904C26.3341 3.76904 27.3532 4.19684 28.1215 4.9641C28.5009 5.3613 28.8003 5.83486 29.0017 6.35647C29.2031 6.87808 29.3025 7.43704 29.2938 7.99993ZM22.9965 7.99993C22.9834 8.68422 23.2233 9.34718 23.6656 9.84931C24.0725 10.296 24.6315 10.5545 25.2196 10.5678C25.8078 10.5811 26.3768 10.3483 26.8017 9.92044C26.8247 9.89697 26.847 9.8735 26.8694 9.84931C27.3058 9.34448 27.5399 8.68192 27.5228 7.99993C27.5419 7.31546 27.3077 6.6499 26.8694 6.14344C26.6679 5.92217 26.427 5.7448 26.1603 5.62147C25.8937 5.49814 25.6065 5.43126 25.3153 5.42465C25.0241 5.41805 24.7344 5.47184 24.463 5.58297C24.1915 5.6941 23.9436 5.86038 23.7332 6.07231C23.7102 6.09507 23.6872 6.11925 23.6656 6.14344C23.2216 6.64735 22.9817 7.3132 22.9965 7.99993ZM17.6849 3.97539V8.99931L16.7541 7.64784L15.3057 5.52959L14.9939 5.08004C14.8981 4.94425 14.7958 4.81368 14.6874 4.68883C14.4597 4.42668 14.1835 4.21611 13.8757 4.07C13.4202 3.86865 12.9133 3.8353 12.4375 3.97539V12.0245H14.1875V6.99984L15.1184 8.35131L16.5667 10.4696L16.8785 10.9191C16.973 11.0544 17.0754 11.1833 17.185 11.3053C17.4124 11.5692 17.6886 11.7815 17.9967 11.9292C18.4524 12.1296 18.9589 12.1632 19.4349 12.0245V3.97539H17.6849ZM47.9489 3.97539V8.99931L47.0187 7.64784L45.5697 5.52959L45.2579 5.08004C45.1621 4.94425 45.0598 4.81368 44.9514 4.68883C44.718 4.42497 44.4355 4.21434 44.1214 4.07C43.6711 3.87315 43.1712 3.83986 42.7008 3.97539V12.0245H44.4461V6.99984L45.3769 8.35131L46.8253 10.4667L47.1371 10.9163C47.2316 11.0517 47.3342 11.1807 47.4442 11.3025C47.6714 11.5666 47.9477 11.7789 48.256 11.9263C48.7119 12.1269 49.2187 12.1604 49.6949 12.0216V3.97539H47.9489Z" fill="white"/>
</svg>
