<svg width="44" height="16" viewBox="0 0 44 16" fill="none" xmlns="http://www.w3.org/2000/svg">
<path fill-rule="evenodd" clip-rule="evenodd" d="M7.91656 9.15356C7.91656 9.75379 7.76814 10.2747 7.47071 10.7168C6.83392 11.6329 5.73008 12.0904 4.15919 12.0904C3.08704 12.0904 2.16896 11.8482 1.40472 11.3642C0.555664 10.8171 0.125721 10.0801 0.115234 9.15356H2.42363C2.42363 9.56419 2.6042 9.88534 2.96489 10.1169C3.2834 10.3169 3.67624 10.4169 4.14317 10.4169C4.5571 10.4169 4.91283 10.3381 5.20991 10.1801C5.5177 10.0116 5.67177 9.79608 5.67177 9.53265C5.67177 9.18522 5.22063 8.91151 4.31833 8.71151C2.98091 8.40625 2.13716 8.16934 1.78684 8.00099C0.884546 7.56945 0.433399 6.90614 0.433399 6.01151C0.433399 5.48499 0.560965 5.00602 0.81552 4.57459C1.07042 4.14305 1.50013 3.80088 2.10535 3.54819C2.71034 3.28511 3.36303 3.15356 4.06343 3.15356C5.01896 3.15356 5.8202 3.37985 6.46759 3.83254C7.21074 4.33779 7.60865 5.05356 7.66189 5.98008H5.44879C5.33217 5.23265 4.8332 4.85894 3.95223 4.85894C3.5912 4.85894 3.2781 4.93768 3.01283 5.09574C2.74756 5.25356 2.61492 5.45356 2.61492 5.69574C2.61492 6.01162 3.07114 6.26945 3.98415 6.46945C5.31086 6.76431 6.16533 7.00122 6.54745 7.17997C7.46011 7.62202 7.91656 8.27996 7.91656 9.15356Z" fill="black"/>
<path fill-rule="evenodd" clip-rule="evenodd" d="M19.0368 11.838H16.7918V6.75364C16.7918 6.16404 16.7017 5.74815 16.5211 5.50632C16.2981 5.22198 15.9001 5.07981 15.327 5.07981C14.1699 5.07981 13.5915 5.72724 13.5915 7.02209V11.838H11.3467V3.42198H13.4959V4.21158C13.4959 4.51684 13.5012 4.66929 13.512 4.66929C13.512 4.65867 13.517 4.65364 13.5277 4.65364C13.793 4.19032 14.1698 3.83249 14.6582 3.57981C15.1572 3.31672 15.6824 3.18518 16.2344 3.18518C17.3594 3.18518 18.1769 3.62198 18.6864 4.4957C18.9198 4.91684 19.0367 5.4221 19.0367 6.01169V11.838H19.0368Z" fill="black"/>
<path fill-rule="evenodd" clip-rule="evenodd" d="M27.3624 9.15356C27.3624 9.75379 27.2139 10.2747 26.9165 10.7168C26.2797 11.6329 25.1759 12.0904 23.605 12.0904C22.5328 12.0904 21.6148 11.8482 20.8505 11.3642C20.0015 10.817 19.5714 10.08 19.561 9.15356H21.8694C21.8694 9.56419 22.05 9.88534 22.4107 10.1169C22.7292 10.3169 23.122 10.4169 23.589 10.4169C24.003 10.4169 24.3586 10.3381 24.6557 10.1801C24.9635 10.0116 25.1176 9.79608 25.1176 9.53265C25.1176 9.18522 24.6664 8.91151 23.7641 8.71151C22.4267 8.40625 21.5831 8.16934 21.2326 8.00099C20.3303 7.56945 19.8792 6.90614 19.8792 6.01151C19.8792 5.48499 20.0068 5.00602 20.2613 4.57459C20.5162 4.14305 20.9459 3.80088 21.5512 3.54819C22.1561 3.28511 22.8088 3.15356 23.5092 3.15356C24.4648 3.15356 25.266 3.37985 25.9134 3.83254C26.6565 4.33779 27.0545 5.05356 27.1077 5.98008H24.8945C24.7779 5.23265 24.2789 4.85894 23.3979 4.85894C23.0369 4.85894 22.7238 4.93768 22.4584 5.09574C22.1931 5.25356 22.0605 5.45356 22.0605 5.69574C22.0605 6.01162 22.5167 6.26945 23.4297 6.46945C24.7564 6.76431 25.6109 7.00122 25.993 7.17997C26.9059 7.62202 27.3624 8.27996 27.3624 9.15356Z" fill="black"/>
<path fill-rule="evenodd" clip-rule="evenodd" d="M35.4687 11.8379H33.383C33.3192 11.7223 33.2501 11.4961 33.1761 11.1589C32.6559 11.7275 31.828 12.0114 30.6923 12.0114C29.9068 12.0114 29.2594 11.8329 28.75 11.4748C28.1555 11.0539 27.8584 10.4432 27.8584 9.64317C27.8584 8.49586 28.3093 7.70626 29.2116 7.27472C29.6255 7.07449 30.4693 6.89575 31.7431 6.73769C32.6454 6.62203 33.0965 6.37986 33.0965 6.01152C33.0965 5.685 32.9585 5.42717 32.6825 5.23757C32.4172 5.03757 32.104 4.93757 31.7431 4.93757C31.3716 4.93757 31.0531 5.03757 30.7878 5.23757C30.5392 5.4226 30.3797 5.67026 30.3095 5.98032H28.1401C28.2063 5.38249 28.3821 4.89277 28.6225 4.51129C28.8985 4.09014 29.3389 3.76386 29.9442 3.53232C30.5066 3.32169 31.1435 3.21643 31.8547 3.21643C34.2641 3.23734 35.4689 4.37975 35.4689 6.64283V11.8379H35.4687ZM33.0963 7.73255C32.8733 7.91163 32.4807 8.05369 31.918 8.15906C31.2812 8.27472 30.8673 8.38534 30.6761 8.4906C30.2835 8.6906 30.0873 9.03803 30.0873 9.53266C30.0873 10.1644 30.4216 10.4801 31.0902 10.4801C31.398 10.4801 31.7165 10.4116 32.0457 10.2748C32.3747 10.1276 32.6242 9.95392 32.7939 9.75392C33.0167 9.4802 33.1282 9.07495 33.1282 8.53792C33.1282 8.44317 33.1229 8.30637 33.1122 8.12763C33.1016 7.94843 33.0963 7.81689 33.0963 7.73255Z" fill="black"/>
<path d="M10.6838 0.104126H8.43896V2.33041H10.6838V0.104126Z" fill="black"/>
<path d="M10.6838 7.62891H8.43896V11.837H10.6838V7.62891Z" fill="black"/>
<path fill-rule="evenodd" clip-rule="evenodd" d="M43.7569 12.3117C43.7569 13.4275 43.3536 14.3221 42.5468 14.9961C41.8039 15.5961 40.9123 15.8959 39.872 15.8959C38.853 15.8959 37.9933 15.6013 37.2926 15.0117C36.5179 14.3486 36.1304 13.4433 36.1304 12.2958H38.216C38.216 12.8326 38.3754 13.2538 38.6937 13.559C38.9697 13.8327 39.32 13.9697 39.7446 13.9697C40.2116 13.9697 40.6202 13.8118 40.9705 13.4959C41.342 13.1379 41.5278 12.6695 41.5278 12.0906V10.7959C41.3686 11.1749 41.0766 11.4697 40.652 11.6802C40.2381 11.8905 39.771 11.9958 39.2509 11.9958C38.423 11.9958 37.7173 11.754 37.1335 11.2697C36.4647 10.7118 36.1304 9.94325 36.1304 8.96428V3.422H38.3754V8.63285C38.3754 9.67491 38.853 10.1961 39.8082 10.1961C40.3177 10.1961 40.7316 10.0486 41.0501 9.75388C41.3686 9.45891 41.5278 9.08531 41.5278 8.63274V3.422H43.7568V12.3117H43.7569Z" fill="black"/>
</svg>
