<svg width="634" height="363" viewBox="0 0 634 363" fill="none" xmlns="http://www.w3.org/2000/svg">
<path d="M800.394 302.85C782.26 217.514 732.796 140.669 660.445 85.4356C588.094 30.2023 497.342 0.00516949 403.686 0C382.751 0 301.037 1.5554 223.44 37.2648C184.557 55.8552 148.878 79.7299 117.582 108.1C46.7873 173.762 4.8681 261.561 0 354.372V386.258C0.470428 401.774 1.96156 417.249 4.46569 432.596C4.46569 434.735 5.16382 436.809 5.65229 439.077V440.373C6.14076 442.901 6.62895 445.493 7.11742 448.021C25.2223 533.381 74.675 610.255 147.029 665.514C219.383 720.773 310.149 750.989 403.826 751H808V375.306C807.977 350.983 805.43 326.719 800.394 302.85ZM351.768 602.718C291.29 590.794 237.708 558.493 201.359 512.045C165.009 465.598 148.466 408.294 154.921 351.188C161.376 294.082 190.372 241.218 236.315 202.794C282.258 164.37 341.895 143.107 403.721 143.107C465.547 143.107 525.183 164.37 571.127 202.794C617.07 241.218 646.065 294.082 652.52 351.188C658.975 408.294 642.433 465.598 606.083 512.045C569.733 558.493 516.151 590.794 455.673 602.718C421.424 609.511 386.017 609.511 351.768 602.718Z" fill="#E5ECFC"/>
</svg>
