<svg width="381" height="488" viewBox="0 0 381 488" fill="none" xmlns="http://www.w3.org/2000/svg">
<path d="M-419.394 185.15C-401.26 270.486 -351.796 347.331 -279.445 402.564C-207.094 457.798 -116.342 487.995 -22.6859 488C-1.75143 488 79.9628 486.445 157.56 450.735C196.443 432.145 232.122 408.27 263.418 379.9C334.213 314.238 376.132 226.439 381 133.628L381 101.742C380.53 86.2257 379.038 70.7508 376.534 55.4038C376.534 53.2651 375.836 51.1913 375.348 48.9229L375.348 47.6267C374.859 45.0992 374.371 42.5069 373.883 39.9793C355.778 -45.3806 306.325 -122.255 233.971 -177.514C161.617 -232.773 70.8508 -262.989 -22.8255 -263L-427 -263L-427 112.694C-426.977 137.017 -424.43 161.281 -419.394 185.15ZM29.2316 -114.718C89.7099 -102.794 143.292 -70.4926 179.641 -24.0451C215.991 22.4025 232.534 79.7059 226.079 136.812C219.624 193.918 190.628 246.782 144.685 285.206C98.7417 323.63 39.1054 344.893 -22.7208 344.893C-84.547 344.893 -144.183 323.63 -190.127 285.206C-236.07 246.782 -265.065 193.918 -271.52 136.812C-277.975 79.7058 -261.433 22.4024 -225.083 -24.0451C-188.733 -70.4927 -135.151 -102.794 -74.6731 -114.718C-40.4244 -121.511 -5.01716 -121.511 29.2316 -114.718Z" fill="#E5ECFC"/>
</svg>
