<svg width="168" height="31" viewBox="0 0 168 31" fill="none" xmlns="http://www.w3.org/2000/svg">
<path d="M86.1752 7.04459H77.841V29.3341H71.6288V7.04459H63.2755V1.66538H86.1752V7.04459ZM99.2212 1.66538H93.0115V29.3341H99.2212V1.66538ZM167.596 15.4997C167.618 17.4335 167.262 19.3523 166.547 21.144C165.833 22.9358 164.775 24.5647 163.436 25.9354C160.71 28.5716 157.094 30.0413 153.336 30.0413C149.577 30.0413 145.961 28.5716 143.235 25.9354C141.883 24.5721 140.815 22.9454 140.094 21.1525C139.373 19.3596 139.014 17.4371 139.039 15.4997C139 13.567 139.346 11.6463 140.055 9.85297C140.763 8.05966 141.82 6.43074 143.163 5.06407C145.888 2.42676 149.504 0.956288 153.263 0.956288C157.023 0.956288 160.639 2.42676 163.364 5.06407C164.724 6.42336 165.799 8.04845 166.526 9.84176C167.254 11.6351 167.617 13.5596 167.596 15.4997ZM145.251 15.4997C145.204 17.852 146.055 20.1309 147.625 21.857C149.069 23.3925 151.052 24.2809 153.139 24.3268C155.226 24.3727 157.246 23.5722 158.753 22.1015L158.993 21.857C160.556 20.1279 161.4 17.8493 161.348 15.4997C161.406 13.1419 160.561 10.8536 158.993 9.11804C158.278 8.35742 157.424 7.74772 156.477 7.32377C155.531 6.89981 154.512 6.66991 153.479 6.64721C152.445 6.6245 151.418 6.80943 150.454 7.19143C149.491 7.57343 148.611 8.14501 147.865 8.87353C147.783 8.95177 147.702 9.0349 147.625 9.11804C146.05 10.8502 145.198 13.1391 145.251 15.4997ZM60.2078 15.4997C60.2297 17.4335 59.8732 19.3523 59.1589 21.144C58.4447 22.9358 57.3871 24.5647 56.0479 25.9354C53.3213 28.5718 49.7053 30.0416 45.9459 30.0416C42.1865 30.0416 38.5705 28.5718 35.8439 25.9354C34.4928 24.5719 33.4252 22.9451 32.7047 21.1522C31.9843 19.3593 31.6257 17.4369 31.6504 15.4997C31.6216 13.562 31.9782 11.6384 32.6989 9.84484C33.4196 8.05132 34.4895 6.42504 35.8439 5.06407C38.57 2.42659 42.1862 0.956055 45.9459 0.956055C49.7057 0.956055 53.3219 2.42659 56.0479 5.06407C57.3943 6.42944 58.4566 8.05729 59.1713 9.85032C59.886 11.6434 60.2386 13.5648 60.2078 15.4997ZM37.8626 15.4997C37.8161 17.852 38.6671 20.1309 40.2366 21.857C41.6805 23.3925 43.6641 24.2809 45.751 24.3268C47.8379 24.3727 49.8572 23.5722 51.3648 22.1015C51.4464 22.0208 51.5256 21.9401 51.6048 21.857C53.1534 20.1216 53.9841 17.8441 53.9236 15.4997C53.9914 13.1469 53.1601 10.859 51.6048 9.11804C50.89 8.35742 50.0351 7.74772 49.089 7.32377C48.1428 6.89981 47.1239 6.66991 46.0905 6.64721C45.057 6.6245 44.0293 6.80943 43.0661 7.19143C42.1029 7.57343 41.2229 8.14501 40.4766 8.87353C40.395 8.95177 40.3134 9.0349 40.2366 9.11804C38.6613 10.8502 37.8098 13.1391 37.8626 15.4997ZM19.0148 1.66538V18.9351L15.7119 14.2894L10.5726 7.00792L9.46607 5.46262C9.12626 4.99584 8.76333 4.54699 8.3787 4.11781C7.57048 3.21667 6.59036 2.49284 5.49824 1.99058C3.88198 1.29845 2.08335 1.18383 0.39502 1.66538V29.3341H6.60481V12.0619L9.90774 16.7076L15.047 23.9891L16.1535 25.5344C16.4889 25.9993 16.852 26.4427 17.2409 26.8621C18.0478 27.7691 19.028 28.4988 20.1214 29.0064C21.7382 29.6956 23.5356 29.811 25.2246 29.3341V1.66538H19.0148ZM126.403 1.66538V18.9351L123.103 14.2894L117.961 7.00792L116.854 5.46262C116.515 4.99584 116.152 4.54699 115.767 4.11781C114.939 3.2108 113.936 2.48677 112.822 1.99058C111.224 1.31394 109.45 1.1995 107.781 1.66538V29.3341H113.974V12.0619L117.277 16.7076L122.416 23.9793L123.523 25.5246C123.858 25.9902 124.222 26.4336 124.613 26.8523C125.419 27.7601 126.399 28.4899 127.493 28.9967C129.111 29.686 130.909 29.8014 132.599 29.3243V1.66538H126.403Z" fill="white"/>
</svg>
