<svg width="76" height="76" viewBox="0 0 76 76" fill="none" xmlns="http://www.w3.org/2000/svg">
<path d="M38 76C58.9868 76 76 58.9868 76 38C76 17.0132 58.9868 0 38 0C17.0132 0 0 17.0132 0 38C0 58.9868 17.0132 76 38 76Z" fill="#FDD835"/>
<path d="M38 76C58.9868 76 76 58.9868 76 38C76 17.0132 58.9868 0 38 0C17.0132 0 0 17.0132 0 38C0 58.9868 17.0132 76 38 76Z" fill="url(#paint0_radial_31881_8204)"/>
<path d="M28.7067 52.0435C28.7067 52.0435 37.3117 45.366 47.3625 52.0435" stroke="#212121" stroke-width="3" stroke-miterlimit="10" stroke-linecap="round" stroke-linejoin="round"/>
<path d="M22.2354 43.0941C25.8473 43.0941 28.7753 40.1661 28.7753 36.5543C28.7753 32.9424 25.8473 30.0144 22.2354 30.0144C18.6235 30.0144 15.6956 32.9424 15.6956 36.5543C15.6956 40.1661 18.6235 43.0941 22.2354 43.0941Z" fill="#212121"/>
<path d="M53.9022 43.0941C57.5141 43.0941 60.4421 40.1661 60.4421 36.5543C60.4421 32.9424 57.5141 30.0144 53.9022 30.0144C50.2904 30.0144 47.3624 32.9424 47.3624 36.5543C47.3624 40.1661 50.2904 43.0941 53.9022 43.0941Z" fill="#212121"/>
<path d="M25.4021 33.4564C25.4021 34.3513 24.7137 35.0397 23.8188 35.0397C22.9239 35.0397 22.2355 34.3513 22.2355 33.4564C22.2355 32.5615 22.9239 31.873 23.8188 31.873C24.7137 31.873 25.4021 32.5615 25.4021 33.4564Z" fill="#FEEB98"/>
<path d="M57.0689 33.4564C57.0689 34.3513 56.3805 35.0397 55.4856 35.0397C54.5906 35.0397 53.9022 34.3513 53.9022 33.4564C53.9022 32.5615 54.5906 31.873 55.4856 31.873C56.3805 31.873 57.0689 32.5615 57.0689 33.4564Z" fill="#FEEB98"/>
<path d="M20.9276 23.6812C20.9276 23.6812 19.4819 29.1884 13.0798 30.634" stroke="#212121" stroke-width="3" stroke-miterlimit="10" stroke-linecap="round" stroke-linejoin="round"/>
<path d="M55.2791 23.6812C55.2791 23.6812 56.7248 29.1884 63.1269 30.634" stroke="#212121" stroke-width="3" stroke-miterlimit="10" stroke-linecap="round" stroke-linejoin="round"/>
<defs>
<radialGradient id="paint0_radial_31881_8204" cx="0" cy="0" r="1" gradientUnits="userSpaceOnUse" gradientTransform="translate(38.0136 38.0136) scale(38.0136)">
<stop stop-color="#FDD835" stop-opacity="0"/>
<stop offset="0.8608" stop-color="#FDD835" stop-opacity="0.8608"/>
<stop offset="1" stop-color="#FDD835"/>
</radialGradient>
</defs>
</svg>
