<svg width="76" height="76" viewBox="0 0 76 76" fill="none" xmlns="http://www.w3.org/2000/svg">
<path d="M38 76C58.9868 76 76 58.9868 76 38C76 17.0132 58.9868 0 38 0C17.0132 0 0 17.0132 0 38C0 58.9868 17.0132 76 38 76Z" fill="#FDD835"/>
<path d="M38 76C58.9868 76 76 58.9868 76 38C76 17.0132 58.9868 0 38 0C17.0132 0 0 17.0132 0 38C0 58.9868 17.0132 76 38 76Z" fill="url(#paint0_radial_32322_4840)"/>
<path d="M22.1666 43.0942C25.7784 43.0942 28.7064 40.1662 28.7064 36.5543C28.7064 32.9425 25.7784 30.0145 22.1666 30.0145C18.5547 30.0145 15.6267 32.9425 15.6267 36.5543C15.6267 40.1662 18.5547 43.0942 22.1666 43.0942Z" fill="#212121"/>
<path d="M53.8333 43.0942C57.4452 43.0942 60.3732 40.1662 60.3732 36.5543C60.3732 32.9425 57.4452 30.0145 53.8333 30.0145C50.2214 30.0145 47.2935 32.9425 47.2935 36.5543C47.2935 40.1662 50.2214 43.0942 53.8333 43.0942Z" fill="#212121"/>
<path d="M28.7065 48.5326H47.2935" stroke="#212121" stroke-width="3" stroke-miterlimit="10" stroke-linecap="round"/>
<path d="M25.4711 33.4565C25.4711 34.3514 24.7827 35.0398 23.8878 35.0398C22.9928 35.0398 22.3044 34.3514 22.3044 33.4565C22.3044 32.5616 22.9928 31.8732 23.8878 31.8732C24.7139 31.8732 25.4711 32.5616 25.4711 33.4565Z" fill="#FEEB98"/>
<path d="M57.1376 33.4565C57.1376 34.3514 56.4492 35.0398 55.5543 35.0398C54.6593 35.0398 53.9709 34.3514 53.9709 33.4565C53.9709 32.5616 54.6593 31.8732 55.5543 31.8732C56.3804 31.8732 57.1376 32.5616 57.1376 33.4565Z" fill="#FEEB98"/>
<defs>
<radialGradient id="paint0_radial_32322_4840" cx="0" cy="0" r="1" gradientUnits="userSpaceOnUse" gradientTransform="translate(38.0136 38.0136) scale(38.0136)">
<stop stop-color="#FDD835" stop-opacity="0"/>
<stop offset="0.8608" stop-color="#FDD835" stop-opacity="0.8608"/>
<stop offset="1" stop-color="#FDD835"/>
</radialGradient>
</defs>
</svg>
