<svg width="24" height="24" viewBox="0 0 24 24" fill="none" xmlns="http://www.w3.org/2000/svg">
<path d="M0 12C0 5.3 5.4 0 12.1 0C18.6 0 24 5.4 24 12C24 18.6 18.6 24 12 24C5.4 24 0 18.6 0 12ZM12 1C6 1 1 6 1 12.2C1.1 18.1 6 23 12 23C18.1 23 23 18.1 23 11.9C23 5.9 18 1 12 1Z" fill="#5081E9"/>
<path d="M12 18C9.7 18 7.5 18 5.2 18C5.1 18 5 17.9 5 17.8C5.1 16.8 5.6 15.9 6.3 15.2C7.4 14.2 8.8 13.8 10.3 13.7C11.5 13.7 12.6 13.7 13.8 13.7C15.4 13.7 16.8 14.2 17.9 15.4C18.5 16 18.9 16.8 19 17.7C19 17.9 19 17.9 18.8 17.9C16.5 18 14.2 18 12 18ZM17.8 17C17.7 16.8 17.6 16.6 17.5 16.5C16.6 15.4 15.4 14.9 14.1 14.8C12.8 14.7 11.5 14.8 10.2 14.8C8.9 14.8 7.8 15.2 6.9 16.1C6.6 16.4 6.4 16.7 6.3 17C10.1 17 13.9 17 17.8 17Z" fill="#5081E9"/>
<path d="M7.8999 9C7.8999 6.8 9.6999 5 11.9999 5C14.2999 5 16.0999 6.8 16.0999 9C16.0999 11.2 14.1999 13.1 11.9999 13.1C9.6999 13.1 7.8999 11.3 7.8999 9ZM11.9999 6C10.2999 6 8.8999 7.4 8.8999 9C8.8999 10.6 10.2999 12 11.9999 12C13.6999 12 15.0999 10.7 15.0999 9.1C15.0999 7.4 13.7999 6 11.9999 6Z" fill="#5081E9"/>
</svg>
