<svg width="32" height="32" viewBox="0 0 32 32" fill="none" xmlns="http://www.w3.org/2000/svg">
<path d="M16 32C24.8366 32 32 24.8366 32 16C32 7.16344 24.8366 0 16 0C7.16344 0 0 7.16344 0 16C0 24.8366 7.16344 32 16 32Z" fill="#8C8C8C"/>
<path d="M27.6419 25.356C26.9459 24.806 26.0979 24.41 25.1779 24.218L20.7919 23.338C20.3319 23.25 19.9999 22.838 19.9999 22.358V21.352C20.2819 20.956 20.5479 20.43 20.8259 19.88C21.0419 19.454 21.3679 18.812 21.5299 18.646C22.4179 17.754 23.2759 16.752 23.5419 15.46C23.7899 14.248 23.5459 13.612 23.2599 13.1C23.2599 11.822 23.2199 10.222 22.9179 9.058C22.8819 7.482 22.5959 6.596 21.8759 5.82C21.3679 5.27 20.6199 5.142 20.0179 5.04C19.7819 5 19.4559 4.944 19.3359 4.88C18.2699 4.304 17.2159 4.022 15.9579 4C13.3239 4.108 10.0859 5.784 9.00185 8.772C8.66585 9.682 8.69985 11.176 8.72785 12.376L8.70185 13.098C8.44385 13.602 8.18985 14.242 8.43985 15.458C8.70385 16.752 9.56185 17.756 10.4659 18.66C10.6139 18.812 10.9479 19.46 11.1679 19.888C11.4499 20.436 11.7179 20.96 11.9999 21.354V22.36C11.9999 22.838 11.6659 23.25 11.2039 23.34L6.81385 24.22C5.89985 24.414 5.05185 24.806 4.35785 25.356C4.14185 25.53 4.00585 25.784 3.98385 26.06C3.96185 26.336 4.05385 26.606 4.23985 26.812C7.22785 30.108 11.5139 32 15.9999 32C20.4859 32 24.7739 30.11 27.7599 26.812C27.9459 26.606 28.0399 26.334 28.0159 26.058C27.9939 25.782 27.8579 25.528 27.6419 25.356Z" fill="#DEDEDE"/>
</svg>
