<svg width="76" height="85" viewBox="0 0 76 85" fill="none" xmlns="http://www.w3.org/2000/svg">
<path d="M38 76C58.9868 76 76 58.9868 76 38C76 17.0132 58.9868 0 38 0C17.0132 0 0 17.0132 0 38C0 58.9868 17.0132 76 38 76Z" fill="#FDD835"/>
<path d="M38 76C58.9868 76 76 58.9868 76 38C76 17.0132 58.9868 0 38 0C17.0132 0 0 17.0132 0 38C0 58.9868 17.0132 76 38 76Z" fill="url(#paint0_radial_31858_4515)"/>
<path d="M27.8043 53.0298C27.8043 53.0298 35.3957 51.8907 42.6875 56.7915" stroke="#212121" stroke-width="3" stroke-miterlimit="10" stroke-linecap="round" stroke-linejoin="round"/>
<path d="M22.2354 43.0942C25.8473 43.0942 28.7753 40.1662 28.7753 36.5544C28.7753 32.9425 25.8473 30.0145 22.2354 30.0145C18.6235 30.0145 15.6956 32.9425 15.6956 36.5544C15.6956 40.1662 18.6235 43.0942 22.2354 43.0942Z" fill="#212121"/>
<path d="M53.9022 43.0942C57.514 43.0942 60.442 40.1662 60.442 36.5544C60.442 32.9425 57.514 30.0145 53.9022 30.0145C50.2903 30.0145 47.3623 32.9425 47.3623 36.5544C47.3623 40.1662 50.2903 43.0942 53.9022 43.0942Z" fill="#212121"/>
<path d="M24.1667 32.5833C24.1667 33.4783 23.4783 34.1667 22.5833 34.1667C21.6884 34.1667 21 33.4783 21 32.5833C21 31.6884 21.6884 31 22.5833 31C23.4783 31 24.1667 31.6884 24.1667 32.5833Z" fill="#FEEB98"/>
<path d="M56.1667 32.5833C56.1667 33.4783 55.4783 34.1667 54.5833 34.1667C53.6884 34.1667 53 33.4783 53 32.5833C53 31.6884 53.6884 31 54.5833 31C55.4783 31 56.1667 31.6884 56.1667 32.5833Z" fill="#FEEB98"/>
<path d="M18 21.6505C18 21.6505 23.4462 19.9894 28.0379 24.6792" stroke="#212121" stroke-width="3" stroke-miterlimit="10" stroke-linecap="round" stroke-linejoin="round"/>
<path d="M59.4788 29.3566C59.4788 29.3566 54.8539 26.0354 48.9999 29.0033" stroke="#212121" stroke-width="3" stroke-miterlimit="10" stroke-linecap="round" stroke-linejoin="round"/>
<path d="M24.134 64.8749L24.1548 64.9338L24.2009 64.976C24.4407 65.1953 24.6935 65.2485 24.9367 65.2287C25.0508 65.2194 25.1608 65.1944 25.2593 65.169C25.2992 65.1587 25.3356 65.1488 25.3704 65.1394C25.4285 65.1236 25.4824 65.109 25.5418 65.0953L25.5431 65.095C31.6647 63.6508 37.7863 62.2367 43.9086 60.8225C44.0602 60.7906 44.21 60.7491 44.3528 60.709L44.3928 60.6977C44.5241 60.6607 44.6493 60.6254 44.775 60.5961C45.0507 60.5318 45.3044 60.5026 45.5553 60.5527L45.5553 60.5527L45.5596 60.5535C46.7839 60.7756 47.6281 61.6534 47.738 62.8575C47.794 63.5158 47.6527 64.0616 47.3408 64.4853C47.0281 64.9102 46.5253 65.2374 45.8131 65.4222C44.1663 65.8429 42.521 66.2366 40.8735 66.6309C40.0485 66.8283 39.223 67.0258 38.3965 67.2269L38.3965 67.2269L38.393 67.2278C37.9969 67.3302 37.5933 67.4256 37.1722 67.5251L37.1464 67.5312C36.7168 67.6327 36.2696 67.7386 35.7993 67.8597L35.3746 67.969L35.6851 68.2788C36.5417 69.1335 37.2038 69.8704 37.1503 70.8871C37.0954 71.8702 36.522 72.6819 35.6224 73.3478L35.4247 73.4942L35.5679 73.6943C35.7152 73.9 35.8823 74.0946 36.0405 74.2787C36.0526 74.2928 36.0647 74.3069 36.0768 74.321C36.2486 74.5212 36.4081 74.7101 36.5401 74.9069C36.7981 75.2912 36.9401 75.6875 36.8245 76.2014C36.5757 77.276 35.8621 77.9202 34.8976 78.4451L34.7671 78.5161V78.6647V78.6681C34.7671 78.7113 34.7671 78.772 34.7716 78.8306C34.7756 78.8826 34.7851 78.9705 34.8238 79.0476L34.8367 79.0733L34.8551 79.0954C35.4259 79.7817 35.6499 80.3421 35.6087 80.841C35.5677 81.3388 35.2566 81.8471 34.5851 82.4154C34.0689 82.8443 33.475 83.152 32.8328 83.2635L32.8328 83.2634L32.8272 83.2645C32.0052 83.4264 31.1949 83.6093 30.3884 83.7914C28.9184 84.1234 27.4607 84.4525 25.9663 84.6462C22.2151 85.1174 19.0295 83.9722 16.274 81.4596C14.0644 79.4314 12.9663 76.8398 12.3994 73.8935C12.0186 71.8468 12.4263 69.9387 12.9382 67.9859C13.1913 67.0615 13.8712 66.2601 14.5944 65.5083L17.6677 62.442C19.5674 60.6081 20.2591 58.4144 19.6975 55.8306L19.6975 55.8306L19.6967 55.8274C19.5154 55.0434 19.3366 54.27 19.2176 53.4983L19.2176 53.498C19.0927 52.6951 19.3308 52.0632 19.7622 51.6809C20.1943 51.2981 20.858 51.1323 21.6514 51.3405C23.3656 51.7967 24.4011 52.9603 25.074 54.5356C25.7299 56.1422 26.1691 57.7598 26.1106 59.5162C26.0518 61.0968 25.6139 62.452 24.604 63.6035L24.5951 63.6136L24.5873 63.6247C24.5465 63.6828 24.496 63.7385 24.4317 63.8093L24.4264 63.8151C24.364 63.8838 24.2881 63.9677 24.2251 64.0632C24.1602 64.1615 24.1039 64.2791 24.0824 64.4206C24.0608 64.5631 24.077 64.7138 24.134 64.8749Z" fill="#FDD835" stroke="black" stroke-width="0.5"/>
<defs>
<radialGradient id="paint0_radial_31858_4515" cx="0" cy="0" r="1" gradientUnits="userSpaceOnUse" gradientTransform="translate(38.0136 38.0136) scale(38.0136)">
<stop stop-color="#FDD835" stop-opacity="0"/>
<stop offset="0.8608" stop-color="#FDD835" stop-opacity="0.8608"/>
<stop offset="1" stop-color="#FDD835"/>
</radialGradient>
</defs>
</svg>
